<?xml version="1.0" encoding="UTF-8"?>
<svg id="Capa_1" data-name="Capa 1" xmlns="http://www.w3.org/2000/svg" xmlns:xlink="http://www.w3.org/1999/xlink" viewBox="190 400 1215 320">
  <defs>
    <style>
      .cls-1 { fill: #fff; }
      .cls-2 { fill: url(#Degradado_sin_nombre_23); }
    </style>
    <linearGradient id="Degradado_sin_nombre_23" x1="225.65" y1="329.37" x2="370.86" y2="727.27" gradientUnits="userSpaceOnUse">
      <stop offset="0" stop-color="#f2735b"/>
      <stop offset=".48" stop-color="#f2735b"/>
      <stop offset=".51" stop-color="#da7d64"/>
      <stop offset=".64" stop-color="#77a68b"/>
      <stop offset=".74" stop-color="#3ac0a3"/>
      <stop offset=".78" stop-color="#22cbad"/>
    </linearGradient>
  </defs>
  <g>
    <path class="cls-2" d="M397.53,593.67l-16.24-9.38c-47.47-27.41-105.96-27.41-153.43,0l-10.09,5.82,86.8-50.11,92.96-53.67c3.48-2.01,3.48-7.03,0-9.04l-90.35-52.17c-1.62-.93-3.61-.93-5.22,0l-95.58,55.18c-1.62.93-2.61,2.66-2.61,4.52v110.36c0,1.87,1,3.59,2.61,4.52l95.57,55.18c1.62.93,3.61.93,5.23,0l90.34-52.16c3.49-2.01,3.49-7.04,0-9.06Z"/>
    <path class="cls-1" d="M708.89,611.9c-20.81,0-37.99-6.91-51.55-20.74-13.56-13.83-20.34-30.88-20.34-51.16s6.78-37.49,20.34-51.26c13.56-13.76,30.75-20.64,51.55-20.64,12.51,0,24.06,2.93,34.66,8.79,10.6,5.86,18.86,13.8,24.79,23.8l-23.5,13.63c-3.43-6.19-8.3-11.03-14.62-14.52-6.32-3.49-13.43-5.23-21.33-5.23-13.43,0-24.27,4.22-32.49,12.64-8.23,8.43-12.34,19.36-12.34,32.79s4.11,24.17,12.34,32.59c8.23,8.43,19.06,12.64,32.49,12.64,7.9,0,15.04-1.75,21.43-5.23,6.39-3.49,11.23-8.26,14.52-14.32l23.5,13.63c-5.92,10.01-14.16,17.94-24.69,23.8-10.53,5.86-22.12,8.79-34.76,8.79Z"/>
    <path class="cls-1" d="M836.49,507.61c10.8,0,19.72,3.62,26.76,10.86,7.04,7.24,10.57,17.25,10.57,30.02v60.64h-25.48v-57.48c0-6.58-1.78-11.62-5.33-15.11-3.56-3.49-8.3-5.23-14.22-5.23-6.58,0-11.85,2.04-15.8,6.12-3.95,4.08-5.92,10.21-5.92,18.37v53.33h-25.48v-138.26h25.48v50.56c6.19-9.21,16-13.82,29.43-13.82Z"/>
    <path class="cls-1" d="M919.64,579.8c5.14,5.2,11.65,7.8,19.55,7.8s14.45-2.6,19.65-7.8c5.2-5.2,7.8-11.88,7.8-20.05s-2.6-14.84-7.8-20.05c-5.2-5.2-11.75-7.8-19.65-7.8s-14.42,2.6-19.55,7.8c-5.14,5.2-7.7,11.89-7.7,20.05s2.57,14.85,7.7,20.05ZM966.65,510.37h25.48v98.76h-25.48v-11.65c-7.64,9.61-18.37,14.42-32.2,14.42s-24.46-5.04-33.87-15.11c-9.42-10.07-14.12-22.42-14.12-37.04s4.71-26.96,14.12-37.04c9.41-10.07,20.71-15.11,33.87-15.11,13.83,0,24.56,4.81,32.2,14.42v-11.65Z"/>
    <path class="cls-1" d="M1116.57,507.61c11.32,0,20.38,3.69,27.16,11.06,6.78,7.38,10.17,17.25,10.17,29.63v60.84h-25.48v-59.06c0-5.93-1.45-10.53-4.34-13.83-2.9-3.29-6.98-4.94-12.25-4.94-5.8,0-10.31,1.91-13.53,5.73-3.23,3.82-4.84,9.35-4.84,16.59v55.5h-25.48v-59.06c0-5.93-1.45-10.53-4.35-13.83-2.9-3.29-6.98-4.94-12.25-4.94-5.66,0-10.17,1.91-13.53,5.73-3.35,3.82-5.03,9.35-5.03,16.59v55.5h-25.48v-98.76h25.48v10.47c5.92-8.82,15.08-13.23,27.46-13.23s21.06,4.74,26.86,14.22c6.58-9.48,16.4-14.22,29.43-14.22Z"/>
    <path class="cls-1" d="M1200.91,579.8c5.13,5.2,11.65,7.8,19.55,7.8s14.45-2.6,19.66-7.8c5.2-5.2,7.8-11.88,7.8-20.05s-2.6-14.84-7.8-20.05c-5.21-5.2-11.76-7.8-19.66-7.8s-14.42,2.6-19.55,7.8c-5.14,5.2-7.7,11.88-7.7,20.05s2.57,14.85,7.7,20.05ZM1225.2,507.61c13.3,0,24.66,5.03,34.08,15.11,9.41,10.07,14.12,22.42,14.12,37.04s-4.71,26.96-14.12,37.04c-9.42,10.07-20.78,15.11-34.08,15.11s-24.49-4.81-32-14.42v11.65h-25.48v-138.26h25.48v51.16c7.51-9.61,18.17-14.42,32-14.42Z"/>
    <path class="cls-1" d="M1315.47,579.8c5.13,5.2,11.65,7.8,19.55,7.8s14.45-2.6,19.65-7.8c5.2-5.2,7.8-11.88,7.8-20.05s-2.6-14.84-7.8-20.05c-5.2-5.2-11.75-7.8-19.65-7.8s-14.42,2.6-19.55,7.8c-5.14,5.2-7.7,11.89-7.7,20.05s2.57,14.85,7.7,20.05ZM1362.48,510.37h25.48v98.76h-25.48v-11.65c-7.64,9.61-18.37,14.42-32.2,14.42s-24.46-5.04-33.87-15.11c-9.41-10.07-14.12-22.42-14.12-37.04s4.71-26.96,14.12-37.04c9.41-10.07,20.71-15.11,33.87-15.11,13.83,0,24.56,4.81,32.2,14.42v-11.65Z"/>
    <path class="cls-1" d="M572.25,490.04v119.06h-29v-71.41l-26.63,71.41h-23.41l-26.8-71.57v71.57h-29v-119.06h34.26l33.41,82.43,33.07-82.43h34.09Z"/>
    <path class="cls-1" d="M595.23,500.13c-3.22-2.99-4.83-6.7-4.83-11.11s1.61-8.28,4.83-11.28c3.22-2.99,7.38-4.49,12.47-4.49s9.07,1.5,12.3,4.49c3.22,3,4.83,6.76,4.83,11.28s-1.61,8.11-4.83,11.11c-3.22,3-7.32,4.49-12.3,4.49s-9.24-1.5-12.47-4.49ZM622.12,514.46v94.64h-29v-94.64h29Z"/>
  </g>
</svg>
